<svg width="39" height="38" viewBox="0 0 39 38" fill="none" xmlns="http://www.w3.org/2000/svg">
<g id="icon_error">
<g id="Group 15">
<path id="Vector" d="M20 26.6665C20 27.2188 19.5523 27.6665 19 27.6665C18.4477 27.6665 18 27.2188 18 26.6665C18 26.1142 18.4477 25.6665 19 25.6665C19.5523 25.6665 20 26.1142 20 26.6665Z" fill="black" stroke="black" stroke-width="3" stroke-linecap="square"/>
<path id="Vector_2" d="M19 21V16" stroke="black" stroke-width="3" stroke-linecap="square"/>
<g id="Polygon 3 (Stroke)">
<mask id="path-3-inside-1_3052_25498" fill="white">
<path fill-rule="evenodd" clip-rule="evenodd" d="M19.0526 1.5L0 34.5H38.1051L19.0526 1.5ZM19.0526 7.5L5.19615 31.5H32.909L19.0526 7.5Z"/>
</mask>
<path fill-rule="evenodd" clip-rule="evenodd" d="M19.0526 1.5L0 34.5H38.1051L19.0526 1.5ZM19.0526 7.5L5.19615 31.5H32.909L19.0526 7.5Z" fill="black"/>
<path d="M19.0526 1.5L21.6506 0L19.0526 -4.5L16.4545 0L19.0526 1.5ZM0 34.5L-2.59808 33L-5.19615 37.5H0V34.5ZM38.1051 34.5V37.5H43.3013L40.7032 33L38.1051 34.5ZM5.19615 31.5L2.59808 30L3.62616e-07 34.5H5.19615V31.5ZM19.0526 7.5L21.6506 6L19.0526 1.5L16.4545 6L19.0526 7.5ZM32.909 31.5V34.5H38.1051L35.507 30L32.909 31.5ZM7.79423 33L21.6506 9L16.4545 6L2.59808 30L7.79423 33ZM32.909 28.5H5.19615V34.5H32.909V28.5ZM16.4545 9L30.3109 33L35.507 30L21.6506 6L16.4545 9ZM2.59808 36L21.6506 3L16.4545 0L-2.59808 33L2.59808 36ZM38.1051 31.5H0V37.5H38.1051V31.5ZM16.4545 3L35.507 36L40.7032 33L21.6506 0L16.4545 3Z" fill="black" mask="url(#path-3-inside-1_3052_25498)"/>
</g>
</g>
</g>
</svg>
