<svg width="24" height="24" viewBox="0 0 24 24" fill="none" xmlns="http://www.w3.org/2000/svg">
<g id="eye">
<path id="Vector" d="M4 4L20 20" stroke="#B1B1B1" stroke-width="2" stroke-linecap="round" stroke-linejoin="round"/>
<path id="Vector_2" d="M10.8572 5.76607C11.2304 5.72256 11.6116 5.7002 12 5.7002C16.1976 5.7002 19.5599 8.31258 21 12.0002C20.6449 12.9096 20.1728 13.7535 19.6002 14.5091M7.06766 7.06769C5.23159 8.18785 3.811 9.92352 3 12.0002C4.44012 15.6878 7.80243 18.3002 12 18.3002C13.8338 18.3002 15.5082 17.8016 16.9325 16.9326M10.0909 10.0909C9.60224 10.5795 9.3 11.2546 9.3 12.0002C9.3 13.4914 10.5088 14.7002 12 14.7002C12.7456 14.7002 13.4207 14.398 13.9093 13.9093" stroke="#B1B1B1" stroke-width="2" stroke-linecap="round" stroke-linejoin="round"/>
<path id="Vector 134" d="M4.7998 4.7998L19.1998 19.1998" stroke="#B1B1B1" stroke-width="2" stroke-linecap="round"/>
</g>
</svg>
