<svg width="20" height="20" viewBox="0 0 20 20" fill="none" xmlns="http://www.w3.org/2000/svg">
<g id="type=l, status=active" clip-path="url(#clip0_402_16935)">
<path id="Vector" d="M9.98329 19.2459C9.91646 19.2459 9.81621 19.2459 9.74937 19.2125C9.58229 19.1791 9.44862 19.0788 9.31495 18.9786L1.82957 11.3261C-0.609858 8.81986 -0.609858 4.80983 1.82957 2.33698C2.83208 1.33447 4.0685 0.799805 5.40518 0.799805H5.4386C6.94236 0.799805 8.57978 1.50156 10.0167 2.73798C11.4202 1.50156 13.0576 0.799805 14.5614 0.799805H14.5948C15.9315 0.799805 17.1679 1.33447 18.1704 2.33698C20.6099 4.77641 20.6099 8.81986 18.1704 11.3261L10.6516 18.9786C10.4845 19.1791 10.2506 19.2459 9.98329 19.2459Z" fill="#FF5D5D"/>
</g>
<defs>
<clipPath id="clip0_402_16935">
<rect width="20" height="20" fill="white"/>
</clipPath>
</defs>
</svg>
