<svg width="20" height="20" viewBox="0 0 20 20" fill="none" xmlns="http://www.w3.org/2000/svg">
<g id="type=m, status=active">
<path id="Vector" d="M9.98663 17.7569C9.93317 17.7569 9.85297 17.7569 9.7995 17.7302C9.66583 17.7034 9.5589 17.6232 9.45196 17.543L3.46366 11.4211C1.51211 9.41604 1.51211 6.20802 3.46366 4.22974C4.26566 3.42774 5.2548 3 6.32414 3H6.35088C7.55388 3 8.86383 3.5614 10.0134 4.55054C11.1362 3.5614 12.4461 3 13.6491 3H13.6759C14.7452 3 15.7343 3.42774 16.5363 4.22974C18.4879 6.18129 18.4879 9.41604 16.5363 11.4211L10.5213 17.543C10.3876 17.7034 10.2005 17.7569 9.98663 17.7569Z" fill="#FF5D5D"/>
</g>
</svg>
