<svg width="20" height="20" viewBox="0 0 20 20" fill="none" xmlns="http://www.w3.org/2000/svg">
<path d="M9.98663 16.9234C9.98054 16.9234 9.97545 16.9234 9.97094 16.9234L9.96322 16.9195L9.89796 16.9065C9.89604 16.9059 9.88734 16.9028 9.86922 16.8922C9.8461 16.8786 9.82128 16.8611 9.78226 16.8322L3.82196 10.7388C3.82181 10.7387 3.82167 10.7385 3.82152 10.7384C2.05847 8.92653 2.06155 6.03083 3.81842 4.24859C4.53362 3.53395 5.39777 3.1665 6.32414 3.1665H6.35088C7.4033 3.1665 8.60188 3.66213 9.68725 4.59605L10.0172 4.87999L10.3439 4.59223C11.3994 3.66239 12.5964 3.1665 13.6491 3.1665H13.6759C14.6027 3.1665 15.4674 3.53437 16.1828 4.2498C17.9362 6.00322 17.9432 8.92436 16.1788 10.738C16.1786 10.7383 16.1783 10.7385 16.178 10.7388L10.1646 16.8591L10.1503 16.8737L10.1372 16.8894C10.1299 16.8982 10.1241 16.9027 10.1104 16.9077C10.0917 16.9147 10.0541 16.9234 9.98663 16.9234Z" fill="black" fill-opacity="0.1" stroke="white"/>
</svg>
