<svg width="24" height="24" viewBox="0 0 24 24" fill="none" xmlns="http://www.w3.org/2000/svg">
<path d="M17.221 16.9729C15.7278 18.4782 13.7237 19.3677 11.6057 19.4651C9.48765 19.5626 7.41028 18.861 5.78511 17.4993C4.15994 16.1376 3.10554 14.2151 2.83078 12.1127C2.55602 10.0103 3.08096 7.88144 4.3016 6.1478C5.52224 4.41416 7.34953 3.20224 9.42146 2.75214C11.4934 2.30205 13.6588 2.64661 15.4887 3.71756C17.3186 4.78852 18.6795 6.50773 19.3017 8.53462C19.8433 10.2986 19.791 12.1835 19.1661 13.904C19.0112 14.3305 18.5166 14.5029 18.1071 14.3074Lnan nanL18.1071 14.3074C17.6977 14.1118 17.5295 13.6224 17.6744 13.1924C18.1276 11.8473 18.1515 10.3868 17.7309 9.01687C17.2296 7.38379 16.1331 5.9986 14.6587 5.13572C13.1843 4.27284 11.4396 3.99522 9.77028 4.35787C8.1009 4.72052 6.62864 5.69697 5.64516 7.09378C4.66167 8.49059 4.23873 10.2059 4.4601 11.8998C4.68147 13.5937 5.53102 15.1426 6.84044 16.2398C8.14985 17.3369 9.82361 17.9022 11.5301 17.8237C12.8314 17.7638 14.0794 17.3329 15.1321 16.5938C15.6783 16.2104 16.4385 16.1967 16.9122 16.6666L17.221 16.9729Z" fill="black"/>
<path d="M15.5754 17.6204L16.7196 16.4742L20.627 20.3744C20.9435 20.6904 20.944 21.2031 20.628 21.5196Lnan nanL20.628 21.5196C20.3121 21.8362 19.7994 21.8366 19.4828 21.5207L15.5754 17.6204Z" fill="black"/>
</svg>
