<svg width="22" height="23" viewBox="0 0 22 23" fill="none" xmlns="http://www.w3.org/2000/svg">
<path d="M15.6935 5.53242L15.2327 5.97887L15.2329 5.97909L15.6935 5.53242ZM13.0835 4.4165V5.05817V4.4165ZM10.4735 5.53242L10.9343 5.97898L10.9344 5.97887L10.4735 5.53242ZM9.76232 6.2663L9.30153 6.71285L9.76232 7.18832L10.2231 6.71285L9.76232 6.2663ZM9.05111 5.53242L8.59033 5.97898L9.05111 5.53242ZM3.8311 10.9188L3.37031 11.3653H3.37031L3.8311 10.9188ZM4.54231 11.6526L5.0031 11.2061H5.00309L4.54231 11.6526ZM9.76232 17.039L9.30153 17.4856L9.76232 17.961L10.2231 17.4856L9.76232 17.039ZM14.9823 11.6526L14.5215 11.2061L14.9823 11.6526ZM15.6935 10.9188L15.2329 10.4721L15.2328 10.4722L15.6935 10.9188ZM16.1544 5.08598C15.7531 4.67167 15.2755 4.3419 14.7484 4.11653L14.2439 5.29653C14.6124 5.4541 14.9486 5.68562 15.2327 5.97887L16.1544 5.08598ZM14.7484 4.11653C14.2212 3.89113 13.6554 3.77484 13.0835 3.77484V5.05817C13.4812 5.05817 13.8754 5.13898 14.2439 5.29653L14.7484 4.11653ZM13.0835 3.77484C12.5116 3.77484 11.9459 3.89113 11.4187 4.11653L11.9232 5.29653C12.2917 5.13898 12.6859 5.05817 13.0835 5.05817V3.77484ZM11.4187 4.11653C10.8916 4.3419 10.414 4.67167 10.0126 5.08598L10.9344 5.97887C11.2185 5.68562 11.5547 5.4541 11.9232 5.29653L11.4187 4.11653ZM10.0127 5.08587L9.30154 5.81974L10.2231 6.71285L10.9343 5.97898L10.0127 5.08587ZM10.2231 5.81974L9.5119 5.08587L8.59033 5.97898L9.30153 6.71285L10.2231 5.81974ZM9.5119 5.08587C8.70101 4.24914 7.59684 3.77521 6.44111 3.77521V5.05854C7.24326 5.05854 8.01678 5.38716 8.59033 5.97898L9.5119 5.08587ZM6.44111 3.77521C5.28537 3.77521 4.1812 4.24914 3.37031 5.08587L4.29189 5.97898C4.86543 5.38716 5.63895 5.05854 6.44111 5.05854V3.77521ZM3.37031 5.08587C2.56009 5.92191 2.10833 7.05166 2.10833 8.2256H3.39167C3.39167 7.37926 3.71768 6.57148 4.29189 5.97898L3.37031 5.08587ZM2.10833 8.2256C2.10833 9.39954 2.56009 10.5293 3.37031 11.3653L4.29189 10.4722C3.71768 9.87972 3.39167 9.07194 3.39167 8.2256H2.10833ZM3.37031 11.3653L4.08152 12.0992L5.00309 11.2061L4.29189 10.4722L3.37031 11.3653ZM4.08152 12.0992L9.30153 17.4856L10.2231 16.5924L5.0031 11.2061L4.08152 12.0992ZM10.2231 17.4856L15.4431 12.0992L14.5215 11.2061L9.30153 16.5924L10.2231 17.4856ZM15.4431 12.0992L16.1543 11.3653L15.2328 10.4722L14.5215 11.2061L15.4431 12.0992ZM16.1542 11.3654C16.5557 10.9514 16.8731 10.4608 17.0894 9.92231L15.8985 9.4441C15.7436 9.8298 15.5171 10.179 15.2329 10.4721L16.1542 11.3654ZM17.0894 9.92231C17.3056 9.38384 17.4167 8.80735 17.4167 8.2256H16.1333C16.1333 8.64426 16.0534 9.05837 15.8985 9.4441L17.0894 9.92231ZM17.4167 8.2256C17.4167 7.64385 17.3056 7.06736 17.0894 6.52889L15.8985 7.0071C16.0534 7.39283 16.1333 7.80694 16.1333 8.2256H17.4167ZM17.0894 6.52889C16.8731 5.99038 16.5557 5.49983 16.1542 5.08576L15.2329 5.97909C15.5171 6.27224 15.7436 6.6214 15.8985 7.0071L17.0894 6.52889Z" fill="#CFCFCF"/>
<path d="M18.6139 12.6476L18.1489 13.0899L18.1491 13.0901L18.6139 12.6476ZM18.1657 11.5645C17.8408 11.423 17.4627 11.5717 17.3212 11.8966C17.1797 12.2216 17.3284 12.5996 17.6533 12.7411L18.1657 11.5645ZM12.1008 15.4325C11.8566 15.1757 11.4504 15.1656 11.1937 15.4099C10.9369 15.6542 10.9268 16.0603 11.1711 16.3171L12.1008 15.4325ZM12.0543 16.3145L11.5895 16.7568C11.596 16.7637 11.6028 16.7704 11.6096 16.777L12.0543 16.3145ZM15.1249 19.2666L14.6802 19.7291L15.1249 20.1567L15.5697 19.7291L15.1249 19.2666ZM18.1955 16.3145L18.6402 16.777C18.6471 16.7704 18.6538 16.7637 18.6604 16.7568L18.1955 16.3145ZM18.6139 15.8748L18.1491 15.4323L18.149 15.4325L18.6139 15.8748ZM19.0789 12.2054C18.8192 11.9325 18.5093 11.7141 18.1657 11.5645L17.6533 12.7411C17.8367 12.821 18.0054 12.9389 18.1489 13.0899L19.0789 12.2054ZM11.1711 16.3171L11.5895 16.7568L12.5192 15.8721L12.1008 15.4325L11.1711 16.3171ZM11.6096 16.777L14.6802 19.7291L15.5697 18.804L12.4991 15.8519L11.6096 16.777ZM15.5697 19.7291L18.6402 16.777L17.7508 15.8519L14.6802 18.804L15.5697 19.7291ZM18.6604 16.7568L19.0788 16.3171L18.149 15.4325L17.7307 15.8721L18.6604 16.7568ZM19.0786 16.3172C19.3383 16.0444 19.5427 15.7222 19.6817 15.3699L18.4878 14.8992C18.4084 15.1005 18.2928 15.2814 18.1491 15.4323L19.0786 16.3172ZM19.6817 15.3699C19.8206 15.0175 19.8917 14.6409 19.8917 14.2612H18.6084C18.6084 14.4809 18.5672 14.6978 18.4878 14.8992L19.6817 15.3699ZM19.8917 14.2612C19.8917 13.8815 19.8206 13.5049 19.6817 13.1526L18.4878 13.6233C18.5672 13.8246 18.6084 14.0415 18.6084 14.2612H19.8917ZM19.6817 13.1526C19.5427 12.8002 19.3383 12.478 19.0786 12.2052L18.1491 13.0901C18.2928 13.241 18.4084 13.4219 18.4878 13.6233L19.6817 13.1526Z" fill="#CFCFCF"/>
</svg>
