<svg width="22" height="23" viewBox="0 0 22 23" fill="none" xmlns="http://www.w3.org/2000/svg">
<path d="M14.4834 7.125C14.4834 9.04879 12.9239 10.6083 11.0001 10.6083C9.0763 10.6083 7.51676 9.04879 7.51676 7.125C7.51676 5.20121 9.0763 3.64167 11.0001 3.64167C12.9239 3.64167 14.4834 5.20121 14.4834 7.125Z" fill="black" stroke="black" stroke-width="1.28333"/>
<path d="M18.5614 18.81C18.5619 18.814 18.5618 18.8159 18.5617 18.8162L18.5616 18.8168C18.5616 18.817 18.5601 18.821 18.554 18.8275C18.5404 18.8416 18.5118 18.8583 18.4708 18.8583H11L3.52917 18.8583C3.48817 18.8583 3.45957 18.8416 3.44602 18.8275C3.43985 18.821 3.43845 18.817 3.43839 18.8168L3.43827 18.8162C3.43824 18.8159 3.43806 18.814 3.4386 18.81C3.51572 18.2449 3.68765 17.6877 3.95259 17.1547C4.32482 16.4058 4.87457 15.7171 5.57715 15.1316C6.27992 14.5459 7.12017 14.0766 8.05223 13.7549C8.98424 13.4332 9.98617 13.2667 11 13.2667C12.0138 13.2667 13.0158 13.4332 13.9478 13.7549C14.8798 14.0766 15.7201 14.5459 16.4228 15.1316C17.1254 15.7171 17.6752 16.4058 18.0474 17.1547C18.3124 17.6877 18.4843 18.2449 18.5614 18.81Z" fill="black" stroke="black" stroke-width="1.28333"/>
</svg>
