<svg width="22" height="23" viewBox="0 0 22 23" fill="none" xmlns="http://www.w3.org/2000/svg">
<path d="M15.6935 5.03243C15.3508 4.67865 14.9439 4.398 14.4961 4.20653C14.0483 4.01506 13.5683 3.9165 13.0835 3.9165C12.5988 3.9165 12.1187 4.01506 11.6709 4.20653C11.2231 4.398 10.8162 4.67865 10.4735 5.03243L9.76228 5.7663L9.05107 5.03243C8.35885 4.31815 7.42 3.91687 6.44106 3.91687C5.46211 3.91687 4.52326 4.31815 3.83104 5.03243C3.13882 5.7467 2.74994 6.71547 2.74994 7.72561C2.74994 8.73575 3.13882 9.70452 3.83104 10.4188L4.54225 11.1527L9.76228 16.539L14.9823 11.1527L15.6935 10.4188C16.0364 10.0652 16.3083 9.64533 16.4939 9.18322C16.6795 8.72112 16.775 8.22582 16.775 7.72561C16.775 7.22541 16.6795 6.73011 16.4939 6.268C16.3083 5.80589 16.0364 5.38604 15.6935 5.03243Z" fill="black"/>
<path d="M15.6935 5.03243L15.2326 5.47888L15.2328 5.47909L15.6935 5.03243ZM13.0835 3.9165V4.55817V3.9165ZM10.4735 5.03243L10.9343 5.47898L10.9344 5.47888L10.4735 5.03243ZM9.76228 5.7663L9.30149 6.21286L9.76228 6.68833L10.2231 6.21286L9.76228 5.7663ZM9.05107 5.03243L8.59028 5.47898H8.59028L9.05107 5.03243ZM3.83104 10.4188L3.37026 10.8654L3.37026 10.8654L3.83104 10.4188ZM4.54225 11.1527L5.00304 10.7061H5.00304L4.54225 11.1527ZM9.76228 16.539L9.30149 16.9856L9.76228 17.4611L10.2231 16.9856L9.76228 16.539ZM14.9823 11.1527L14.5215 10.7061V10.7061L14.9823 11.1527ZM15.6935 10.4188L15.2328 9.97213L15.2327 9.97224L15.6935 10.4188ZM16.1544 4.58598C15.7531 4.17167 15.2755 3.8419 14.7484 3.61653L14.2438 4.79653C14.6124 4.9541 14.9486 5.18562 15.2326 5.47888L16.1544 4.58598ZM14.7484 3.61653C14.2212 3.39113 13.6554 3.27484 13.0835 3.27484V4.55817C13.4811 4.55817 13.8754 4.63898 14.2438 4.79653L14.7484 3.61653ZM13.0835 3.27484C12.5116 3.27484 11.9458 3.39113 11.4186 3.61653L11.9232 4.79653C12.2917 4.63898 12.6859 4.55817 13.0835 4.55817V3.27484ZM11.4186 3.61653C10.8915 3.8419 10.4139 4.17167 10.0126 4.58598L10.9344 5.47888C11.2184 5.18562 11.5546 4.9541 11.9232 4.79653L11.4186 3.61653ZM10.0127 4.58587L9.30149 5.31975L10.2231 6.21286L10.9343 5.47898L10.0127 4.58587ZM10.2231 5.31975L9.51185 4.58587L8.59028 5.47898L9.30149 6.21286L10.2231 5.31975ZM9.51185 4.58587C8.70096 3.74914 7.59679 3.27521 6.44106 3.27521V4.55854C7.24321 4.55854 8.01674 4.88716 8.59028 5.47898L9.51185 4.58587ZM6.44106 3.27521C5.28532 3.27521 4.18115 3.74914 3.37026 4.58587L4.29183 5.47898C4.86537 4.88716 5.6389 4.55854 6.44106 4.55854V3.27521ZM3.37026 4.58587C2.56003 5.42192 2.10827 6.55167 2.10827 7.72561H3.39161C3.39161 6.87927 3.71762 6.07149 4.29183 5.47898L3.37026 4.58587ZM2.10827 7.72561C2.10827 8.89955 2.56003 10.0293 3.37026 10.8654L4.29183 9.97224C3.71762 9.37974 3.39161 8.57195 3.39161 7.72561H2.10827ZM3.37026 10.8654L4.08147 11.5992L5.00304 10.7061L4.29183 9.97224L3.37026 10.8654ZM4.08147 11.5992L9.30149 16.9856L10.2231 16.0925L5.00304 10.7061L4.08147 11.5992ZM10.2231 16.9856L15.4431 11.5992L14.5215 10.7061L9.30149 16.0925L10.2231 16.9856ZM15.4431 11.5992L16.1543 10.8654L15.2327 9.97224L14.5215 10.7061L15.4431 11.5992ZM16.1542 10.8655C16.5557 10.4514 16.8731 9.96084 17.0894 9.42233L15.8985 8.94412C15.7436 9.32982 15.5171 9.67898 15.2328 9.97213L16.1542 10.8655ZM17.0894 9.42233C17.3056 8.88386 17.4166 8.30736 17.4166 7.72561H16.1333C16.1333 8.14427 16.0534 8.55838 15.8985 8.94412L17.0894 9.42233ZM17.4166 7.72561C17.4166 7.14386 17.3056 6.56737 17.0894 6.02889L15.8985 6.50711C16.0534 6.89284 16.1333 7.30695 16.1333 7.72561H17.4166ZM17.0894 6.02889C16.8731 5.49039 16.5557 4.99984 16.1542 4.58576L15.2328 5.47909C15.5171 5.77225 15.7436 6.1214 15.8985 6.50711L17.0894 6.02889Z" fill="black"/>
<path d="M17.7977 11.6523C18.0831 11.7671 18.3424 11.9352 18.5608 12.1472C18.7793 12.359 18.9526 12.6106 19.0709 12.8875C19.1891 13.1643 19.25 13.4611 19.25 13.7608C19.25 14.0605 19.1891 14.3572 19.0709 14.6341C18.9526 14.911 18.7793 15.1625 18.5608 15.3744L18.1076 15.8141L14.7811 19.0413L12.5889 16.9145L17.7977 11.6523Z" fill="black"/>
<path d="M18.5608 12.1472L18.1139 12.6076L18.1141 12.6078L18.5608 12.1472ZM17.7977 11.6523L18.0371 11.057C17.7974 10.9607 17.5234 11.0174 17.3417 11.2009L17.7977 11.6523ZM14.7811 19.0413L14.3343 19.5019L14.7811 19.9353L15.2279 19.5019L14.7811 19.0413ZM18.1076 15.8141L17.6608 15.3536V15.3536L18.1076 15.8141ZM18.5608 15.3744L18.1141 14.9137L18.114 14.9139L18.5608 15.3744ZM19.0709 12.8875L18.4808 13.1395L18.4808 13.1395L19.0709 12.8875ZM12.5889 16.9145L12.1328 16.4631L11.6769 16.9237L12.1421 17.3751L12.5889 16.9145ZM19.0077 11.6867C18.7289 11.4161 18.3989 11.2024 18.0371 11.057L17.5584 12.2477C17.7674 12.3317 17.9559 12.4543 18.1139 12.6076L19.0077 11.6867ZM15.2279 19.5019L18.5544 16.2746L17.6608 15.3536L14.3343 18.5808L15.2279 19.5019ZM18.5544 16.2746L19.0076 15.8349L18.114 14.9139L17.6608 15.3536L18.5544 16.2746ZM19.0075 15.8351C19.2865 15.5645 19.5089 15.2423 19.661 14.8861L18.4808 14.3821C18.3964 14.5797 18.2721 14.7605 18.1141 14.9137L19.0075 15.8351ZM19.661 14.8861C19.8131 14.53 19.8916 14.1475 19.8916 13.7608H18.6083C18.6083 13.9734 18.5651 14.1845 18.4808 14.3821L19.661 14.8861ZM19.8916 13.7608C19.8916 13.3741 19.8131 12.9916 19.661 12.6354L18.4808 13.1395C18.5651 13.3371 18.6083 13.5481 18.6083 13.7608H19.8916ZM19.661 12.6354C19.5089 12.2793 19.2865 11.9571 19.0075 11.6865L18.1141 12.6078C18.2721 12.761 18.3964 12.9419 18.4808 13.1395L19.661 12.6354ZM12.1421 17.3751L14.3343 19.5019L15.2279 18.5808L13.0357 16.454L12.1421 17.3751ZM17.3417 11.2009L12.1328 16.4631L13.0449 17.3659L18.2538 12.1038L17.3417 11.2009Z" fill="black"/>
</svg>
