<svg width="22" height="23" viewBox="0 0 22 23" fill="none" xmlns="http://www.w3.org/2000/svg">
<path d="M14.4834 7.625C14.4834 9.54879 12.9239 11.1083 11.0001 11.1083C9.0763 11.1083 7.51676 9.54879 7.51676 7.625C7.51676 5.70121 9.0763 4.14167 11.0001 4.14167C12.9239 4.14167 14.4834 5.70121 14.4834 7.625Z" stroke="#CFCFCF" stroke-width="1.28333"/>
<path d="M18.5614 19.31C18.5619 19.314 18.5618 19.3159 18.5617 19.3162L18.5616 19.3168C18.5616 19.317 18.5601 19.321 18.554 19.3275C18.5404 19.3416 18.5118 19.3583 18.4708 19.3583H11L3.52917 19.3583C3.48817 19.3583 3.45957 19.3416 3.44602 19.3275C3.43985 19.321 3.43845 19.317 3.43839 19.3168L3.43827 19.3162C3.43824 19.3159 3.43806 19.314 3.4386 19.31C3.51572 18.7449 3.68765 18.1877 3.95259 17.6547C4.32482 16.9058 4.87457 16.2171 5.57715 15.6316C6.27992 15.0459 7.12017 14.5766 8.05223 14.2549C8.98424 13.9332 9.98617 13.7667 11 13.7667C12.0138 13.7667 13.0158 13.9332 13.9478 14.2549C14.8798 14.5766 15.7201 15.0459 16.4228 15.6316C17.1254 16.2171 17.6752 16.9058 18.0474 17.6547C18.3124 18.1877 18.4843 18.7449 18.5614 19.31Z" stroke="#CFCFCF" stroke-width="1.28333"/>
</svg>
