<svg width="25" height="25" viewBox="0 0 25 25" fill="none" xmlns="http://www.w3.org/2000/svg">
<path d="M17.6215 9.97581C18.838 9.97581 19.3956 8.70859 19.5223 8.07498L21.7451 8.44545C21.783 8.45176 21.8179 8.46973 21.845 8.49684L24.3344 10.9862C24.4062 11.0581 24.4062 11.1746 24.3344 11.2464L22.6937 12.887C22.6219 12.9589 22.5054 12.9589 22.4335 12.887L21.2137 11.6672C21.1507 11.6042 21.043 11.6488 21.043 11.7379V19.6761C21.043 19.7777 20.9606 19.8601 20.859 19.8601H14.384C14.2824 19.8601 14.2 19.7777 14.2 19.6761V12.4065C14.2 12.3534 14.2229 12.3029 14.2629 12.2679L16.8325 10.0213C16.8661 9.99197 16.9091 9.97581 16.9537 9.97581H17.6215Z" fill="white"/>
<path d="M17.6215 3.86011V6.83031C17.6215 6.89494 17.6554 6.95483 17.7108 6.98809L19.5223 8.07498M19.5223 8.07498C19.3956 8.70859 18.838 9.97581 17.6215 9.97581H16.9537C16.9091 9.97581 16.8661 9.99197 16.8325 10.0213L14.2629 12.2679C14.2229 12.3029 14.2 12.3534 14.2 12.4065V19.6761C14.2 19.7777 14.2824 19.8601 14.384 19.8601H20.859C20.9606 19.8601 21.043 19.7777 21.043 19.6761V11.7379C21.043 11.6488 21.1507 11.6042 21.2137 11.6672L22.4335 12.887C22.5054 12.9589 22.6219 12.9589 22.6937 12.887L24.3344 11.2464C24.4062 11.1746 24.4062 11.0581 24.3344 10.9862L21.845 8.49684C21.8179 8.46973 21.783 8.45176 21.7451 8.44545L19.5223 8.07498Z" stroke="black" stroke-width="1.2"/>
<path d="M2 1.56006H24V3.56006H2V1.56006Z" fill="white" stroke="black" stroke-width="1.2"/>
<path d="M11.0154 10.8C12.6892 10.8 13.4564 9.05641 13.6308 8.18462L16.7692 8.70769L20.4308 12.3692L17.8154 14.9846L15.7231 12.8923V24.4H6.3077V12.8923L4.21539 14.9846L1.60001 12.3692L5.26155 8.70769L8.40001 8.18462C8.57437 9.05641 9.34155 10.8 11.0154 10.8Z" fill="white"/>
<path d="M11.0154 6.61538H10.4154V6.9551L10.7067 7.12988L11.0154 6.61538ZM8.40001 8.18462L8.98836 8.06695L8.87442 7.49727L8.30137 7.59278L8.40001 8.18462ZM5.26155 8.70769L5.16291 8.11586L4.97324 8.14747L4.83728 8.28343L5.26155 8.70769ZM1.60001 12.3692L1.17574 11.945L0.751478 12.3692L1.17574 12.7935L1.60001 12.3692ZM4.21539 14.9846L3.79113 15.4089L4.21539 15.8331L4.63966 15.4089L4.21539 14.9846ZM6.3077 12.8923H6.9077L5.88344 12.468L6.3077 12.8923ZM6.3077 24.4H5.7077V25H6.3077V24.4ZM15.7231 24.4V25H16.3231V24.4H15.7231ZM15.7231 12.8923L16.1473 12.468L15.1231 12.8923H15.7231ZM17.8154 14.9846L17.3911 15.4089L17.8154 15.8331L18.2397 15.4089L17.8154 14.9846ZM20.4308 12.3692L20.855 12.7935L21.2793 12.3692L20.855 11.945L20.4308 12.3692ZM16.7692 8.70769L17.1935 8.28343L17.0575 8.14747L16.8679 8.11586L16.7692 8.70769ZM10.4154 4V6.61538H11.6154V4H10.4154ZM10.7067 7.12988L13.3221 8.69911L13.9395 7.67012L11.3241 6.10089L10.7067 7.12988ZM13.0424 8.06695C12.9694 8.43185 12.7659 8.99459 12.4114 9.45139C12.0653 9.89738 11.614 10.2 11.0154 10.2V11.4C12.0906 11.4 12.8599 10.8308 13.3594 10.1871C13.8506 9.55413 14.1177 8.80918 14.2191 8.30229L13.0424 8.06695ZM11.0154 10.2C10.4167 10.2 9.9655 9.89738 9.61941 9.45139C9.26493 8.99459 9.06134 8.43185 8.98836 8.06695L7.81166 8.30228C7.91304 8.80918 8.18021 9.55413 8.67137 10.1871C9.17093 10.8308 9.9402 11.4 11.0154 11.4V10.2ZM8.30137 7.59278L5.16291 8.11586L5.36018 9.29953L8.49865 8.77645L8.30137 7.59278ZM4.83728 8.28343L1.17574 11.945L2.02427 12.7935L5.68581 9.13196L4.83728 8.28343ZM1.17574 12.7935L3.79113 15.4089L4.63966 14.5604L2.02427 11.945L1.17574 12.7935ZM4.63966 15.4089L6.73196 13.3166L5.88344 12.468L3.79113 14.5604L4.63966 15.4089ZM5.7077 12.8923V24.4H6.9077V12.8923H5.7077ZM6.3077 25H15.7231V23.8H6.3077V25ZM16.3231 24.4V12.8923H15.1231V24.4H16.3231ZM15.2988 13.3166L17.3911 15.4089L18.2397 14.5604L16.1473 12.468L15.2988 13.3166ZM18.2397 15.4089L20.855 12.7935L20.0065 11.945L17.3911 14.5604L18.2397 15.4089ZM20.855 11.945L17.1935 8.28343L16.345 9.13196L20.0065 12.7935L20.855 11.945ZM16.8679 8.11586L13.7294 7.59278L13.5321 8.77645L16.6706 9.29953L16.8679 8.11586Z" fill="black"/>
</svg>
